<?xml version="1.0" encoding="iso-8859-1"?>
<svg xmlns="http://www.w3.org/2000/svg" xmlns:xlink="http://www.w3.org/1999/xlink" version="1.1" viewBox="0 0 463 463" enable-background="new 0 0 463 463" width="512px" height="512px">
  <g>
    <path d="m311.834,246.309l-30.458-79.951c-5.734-15.052-10.122-30.459-13.179-46.117-0.046-0.525-0.148-1.045-0.304-1.552-3.246-17.139-4.893-34.576-4.893-52.188v-9.342c5.017-4.418 8-10.851 8-17.659v-16c0-12.958-10.542-23.5-23.5-23.5h-32c-12.958,0-23.5,10.542-23.5,23.5v16c0,7.023 3.101,13.332 8,17.641v9.359c0,17.612-1.647,35.049-4.893,52.187-0.156,0.508-0.258,1.028-0.304,1.552-3.058,15.658-7.445,31.065-13.179,46.117l-30.458,79.951c-10.063,26.42-15.166,54.147-15.166,82.415v94.778c0,21.78 17.72,39.5 39.5,39.5h112c21.78,0 39.5-17.72 39.5-39.5v-94.778c0-28.268-5.103-55.995-15.166-82.413zm-105.116-110.356l19.479,19.479c1.464,1.464 3.384,2.196 5.303,2.196s3.839-0.732 5.303-2.196l19.479-19.479c2.683,11.078 6.015,22.019 9.991,32.795l-28.763,28.763c-1.605,1.605-3.74,2.489-6.01,2.489s-4.404-0.884-6.01-2.49l-28.763-28.762c3.976-10.776 7.308-21.717 9.991-32.795zm8.782-72.953h8c4.142,0 7.5-3.357 7.5-7.5s-3.358-7.5-7.5-7.5h-8c-4.687,0-8.5-3.813-8.5-8.5v-16c0-4.687 3.813-8.5 8.5-8.5h32c4.687,0 8.5,3.813 8.5,8.5v16c0,3.026-1.63,5.849-4.255,7.367-2.402,1.39-3.737,3.908-3.738,6.497-0.001,0.046-0.007,0.09-0.007,0.136v13.001c0,17.509 1.547,34.854 4.594,51.926l-21.094,21.094-21.094-21.094c3.047-17.072 4.594-34.417 4.594-51.926v-3.514c0.167,0.004 0.332,0.013 0.5,0.013zm96.5,360.5c0,13.51-10.991,24.5-24.5,24.5h-112c-13.509,0-24.5-10.99-24.5-24.5v-94.778c0-26.437 4.772-52.367 14.184-77.073l25.719-67.512 23.981,23.979c4.438,4.439 10.34,6.884 16.617,6.884s12.179-2.444 16.617-6.883l23.981-23.98 25.719,67.512c9.41,24.705 14.182,50.636 14.182,77.073v94.778z" fill="#FFFFFF"/>
    <path d="m279.5,336h-96c-8.547,0-15.5,6.953-15.5,15.5v64c0,8.547 6.953,15.5 15.5,15.5h96c8.547,0 15.5-6.953 15.5-15.5v-64c0-8.547-6.953-15.5-15.5-15.5zm.5,79.5c0,0.275-0.224,0.5-0.5,0.5h-96c-0.276,0-0.5-0.225-0.5-0.5v-64c0-0.275 0.224-0.5 0.5-0.5h96c0.276,0 0.5,0.225 0.5,0.5v64z" fill="#FFFFFF"/>
    <path d="m271.621,273.738c3.905,12.487 6.476,25.416 7.642,38.428 0.349,3.898 3.622,6.831 7.461,6.831 0.224,0 0.451-0.01 0.678-0.03 4.126-0.369 7.171-4.014 6.801-8.139-1.261-14.075-4.042-28.061-8.266-41.566-1.236-3.954-5.444-6.151-9.397-4.92-3.953,1.236-6.156,5.443-4.919,9.396z" fill="#FFFFFF"/>
    <path d="m259.939,242.11c1.14,2.992 3.988,4.832 7.01,4.832 0.887,0 1.79-0.158 2.668-0.493 3.871-1.475 5.813-5.808 4.339-9.679l-6.084-15.971c-1.475-3.87-5.807-5.814-9.679-4.339-3.871,1.475-5.813,5.808-4.339,9.679l6.085,15.971z" fill="#FFFFFF"/>
    <path d="m255.5,368h-48c-4.142,0-7.5,3.357-7.5,7.5s3.358,7.5 7.5,7.5h48c4.142,0 7.5-3.357 7.5-7.5s-3.358-7.5-7.5-7.5z" fill="#FFFFFF"/>
    <path d="m175.598,318.974c0.228,0.021 0.454,0.03 0.678,0.03 3.84,0 7.112-2.934 7.461-6.831 1.501-16.773 5.32-33.305 11.35-49.133l1.855-4.871c1.475-3.871-0.468-8.204-4.339-9.679-3.873-1.477-8.205,0.468-9.679,4.339l-1.855,4.871c-6.519,17.114-10.648,34.991-12.273,53.135-0.368,4.126 2.677,7.769 6.802,8.139z" fill="#FFFFFF"/>
  </g>
</svg>
