<?xml version="1.0" encoding="iso-8859-1"?>
<!-- Generator: Adobe Illustrator 19.0.0, SVG Export Plug-In . SVG Version: 6.00 Build 0)  -->
<svg xmlns="http://www.w3.org/2000/svg" xmlns:xlink="http://www.w3.org/1999/xlink" version="1.1" id="Layer_1" x="0px" y="0px" viewBox="0 0 502.001 502.001" style="enable-background:new 0 0 502.001 502.001;" xml:space="preserve" width="512px" height="512px">
<g>
	<g>
		<g>
			<path d="M43.084,223.758c1.398,0.685,2.903,1.02,4.398,1.02c2.337,0,4.653-0.819,6.502-2.4l94.917-81.183     c15.773,4.784,31.997,8.475,48.381,11.004l48.929,113.317c1.582,3.663,5.19,6.036,9.181,6.036c3.991,0,7.599-2.373,9.181-6.036     l49.609-114.891c6.416-1.172,12.839-2.525,19.162-4.049c5.368-1.294,8.672-6.696,7.378-12.065     c-1.293-5.369-6.693-8.674-12.065-7.379c-7.635,1.84-15.427,3.426-23.158,4.712c-33.038,5.496-66.639,5.96-99.875,1.377     c-19.01-2.621-37.843-6.904-55.977-12.729c-32.156-10.33-62.456-25.527-90.056-45.167c-2.98-2.121-6.878-2.445-10.167-0.848     c-3.289,1.598-5.444,4.863-5.619,8.515l-6.309,131.306C37.304,218.284,39.501,222.002,43.084,223.758z M290.905,154.077     l-35.513,82.248l-35.118-81.331C243.816,157.061,267.455,156.754,290.905,154.077z M62.931,101.681     c20.191,12.861,41.595,23.583,63.946,32.034l-68.292,58.41L62.931,101.681z" fill="#FFFFFF"/>
			<path d="M499.072,39.376c-3.904-3.905-10.234-3.905-14.143,0c-12.174,12.174-25.378,23.48-39.246,33.606     c-0.001,0.001-0.003,0.002-0.004,0.003c-27.719,20.237-58.298,35.95-90.889,46.701c-3.429,1.131-5.981,4.022-6.679,7.564     c-0.697,3.542,0.568,7.186,3.312,9.532l100.078,85.596c1.85,1.582,4.164,2.4,6.502,2.4c1.495,0,3-0.335,4.398-1.02     c3.583-1.756,5.779-5.474,5.588-9.46L461.82,85.897c13.114-9.889,25.63-20.757,37.252-32.38     C502.977,49.613,502.977,43.281,499.072,39.376z M377.523,132.786c22.764-8.793,44.497-19.93,64.928-33.271l4.45,92.61     L377.523,132.786z" fill="#FFFFFF"/>
			<path d="M149.648,314.492c-32.156-10.33-62.456-25.527-90.056-45.167c-15.118-10.758-29.423-22.853-42.52-35.95     c-3.905-3.905-10.237-3.905-14.143,0c-3.905,3.905-3.905,10.237,0,14.143c12.588,12.588,26.237,24.289,40.617,34.865     l-6.05,125.915c-0.192,3.986,2.005,7.704,5.588,9.46c1.398,0.685,2.903,1.02,4.398,1.02c2.337,0,4.653-0.819,6.502-2.4     l99.104-84.765c2.754-2.356,4.018-6.017,3.304-9.57C155.679,318.489,153.099,315.601,149.648,314.492z M58.585,386.125     l4.346-90.444c20.191,12.861,41.595,23.583,63.946,32.034L58.585,386.125z" fill="#FFFFFF"/>
			<path d="M455.89,266.039c-3.317-1.586-7.24-1.224-10.211,0.945c-27.719,20.237-58.298,35.95-90.889,46.701     c-16.068,5.3-32.653,9.392-49.292,12.16c-33.038,5.496-66.639,5.96-99.875,1.377c-8.856-1.221-17.759-2.817-26.462-4.743     c-5.395-1.197-10.732,2.209-11.925,7.603c-1.193,5.392,2.21,10.731,7.603,11.925c7.391,1.636,14.917,3.035,22.445,4.197     l48.927,113.313c1.582,3.663,5.19,6.036,9.181,6.036c3.991,0,7.599-2.373,9.181-6.036l49.611-114.895     c13.975-2.553,27.879-5.978,41.473-10.219l95.844,81.976c1.85,1.582,4.164,2.4,6.502,2.4c1.495,0,3-0.335,4.398-1.02     c3.583-1.756,5.779-5.474,5.588-9.46l-6.425-133.718C461.387,270.907,459.209,267.626,455.89,266.039z M255.392,430.325     l-35.118-81.331c23.542,2.066,47.181,1.76,70.631-0.917L255.392,430.325z M377.523,326.786     c22.764-8.793,44.497-19.93,64.928-33.271l4.45,92.61L377.523,326.786z" fill="#FFFFFF"/>
		</g>
	</g>
</g>
<g>
</g>
<g>
</g>
<g>
</g>
<g>
</g>
<g>
</g>
<g>
</g>
<g>
</g>
<g>
</g>
<g>
</g>
<g>
</g>
<g>
</g>
<g>
</g>
<g>
</g>
<g>
</g>
<g>
</g>
</svg>
