<?xml version="1.0" encoding="UTF-8" standalone="no"?>
<svg width="386px" height="423px" viewBox="0 0 386 423" version="1.1" xmlns="http://www.w3.org/2000/svg" xmlns:xlink="http://www.w3.org/1999/xlink">
    <!-- Generator: Sketch 3.6.1 (26313) - http://www.bohemiancoding.com/sketch -->
    <title>wedding-rings (1)</title>
    <desc>Created with Sketch.</desc>
    <defs></defs>
    <g id="Page-1" stroke="none" stroke-width="1" fill="none" fill-rule="evenodd">
        <g id="wedding-rings-(1)" fill="#000000">
            <g id="Group">
                <path d="M263.538,177.828 C238.052,177.828 213.879,185.533 193.238,200.086 C179.07,190.107 162.698,183.055 145.009,179.822 L192.814,148.523 C195.744,146.605 196.956,142.916 195.735,139.632 L181.524,101.439 C180.431,98.501 177.628,96.554 174.495,96.554 L71.986,96.554 C68.853,96.554 66.049,98.501 64.957,101.439 L50.744,139.632 C49.523,142.913 50.735,146.605 53.665,148.523 L101.345,179.74 C44.163,189.977 0.626,240.08 0.626,300.162 C0.626,367.619 55.506,422.5 122.962,422.5 C148.418,422.5 172.643,414.812 193.294,400.254 C213.188,414.258 237.415,422.5 263.538,422.5 C330.994,422.5 385.874,367.619 385.874,300.162 C385.874,232.707 330.994,177.828 263.538,177.828 L263.538,177.828 Z M15.626,300.162 C15.626,240.976 63.776,192.828 122.962,192.828 C182.148,192.828 230.298,240.976 230.298,300.162 C230.298,319.566 225.129,338.334 215.321,354.853 C210.12,350.261 205.595,344.929 201.868,339.046 C207.799,327.013 210.923,313.667 210.923,300.161 C210.923,251.659 171.464,212.202 122.962,212.202 C74.46,212.202 35.001,251.659 35.001,300.161 C35.001,348.663 74.46,388.124 122.962,388.124 C138.814,388.124 154.102,383.938 167.591,375.97 C171.684,381.14 176.189,385.966 181.047,390.411 C163.745,401.6 143.83,407.499 122.962,407.499 C63.776,407.5 15.626,359.348 15.626,300.162 L15.626,300.162 Z M122.962,373.125 C82.732,373.125 50.001,340.393 50.001,300.162 C50.001,259.932 82.731,227.203 122.962,227.203 C136.038,227.203 148.311,230.678 158.936,236.726 C147.322,255.818 141.203,277.579 141.203,300.162 C141.203,323.379 147.704,345.103 158.98,363.617 C148.041,369.848 135.725,373.125 122.962,373.125 L122.962,373.125 Z M193.254,280.6 C194.991,286.827 195.923,293.387 195.923,300.163 C195.923,306.792 194.998,313.368 193.24,319.704 C191.507,313.483 190.577,306.931 190.577,300.163 C190.577,293.525 191.493,286.939 193.254,280.6 L193.254,280.6 Z M227.52,236.717 C238.46,230.483 250.776,227.203 263.539,227.203 C303.769,227.203 336.5,259.931 336.5,300.162 C336.5,340.392 303.77,373.125 263.539,373.125 C250.462,373.125 238.188,369.648 227.563,363.6 C239.173,344.502 245.298,322.707 245.298,300.162 C245.298,276.947 238.794,255.227 227.52,236.717 L227.52,236.717 Z M161.028,134.748 L85.572,134.748 L123.396,112.738 L161.028,134.748 L161.028,134.748 Z M169.282,111.555 L174.345,125.161 L151.083,111.555 L169.282,111.555 L169.282,111.555 Z M77.198,111.555 L95.605,111.555 L72.11,125.227 L77.198,111.555 L77.198,111.555 Z M82.921,149.748 L163.558,149.748 L123.24,176.146 L82.921,149.748 L82.921,149.748 Z M263.538,407.5 C204.352,407.5 156.202,359.348 156.202,300.162 C156.202,280.726 161.372,261.988 171.184,245.476 C176.383,250.066 180.906,255.396 184.631,261.279 C178.701,273.312 175.576,286.656 175.576,300.162 C175.576,348.664 215.035,388.125 263.537,388.125 C312.039,388.125 351.498,348.664 351.498,300.162 C351.498,251.66 312.039,212.203 263.537,212.203 C247.684,212.203 232.395,216.389 218.904,224.357 C214.814,219.191 210.312,214.367 205.457,209.923 C222.75,198.732 242.639,192.827 263.537,192.827 C322.723,192.827 370.873,240.975 370.873,300.161 C370.874,359.348 322.724,407.5 263.538,407.5 L263.538,407.5 Z" id="Shape"></path>
                <path d="M123.238,49.291 C127.381,49.291 130.738,45.934 130.738,41.791 L130.738,7.5 C130.738,3.357 127.381,0 123.238,0 C119.095,0 115.738,3.357 115.738,7.5 L115.738,41.791 C115.738,45.934 119.096,49.291 123.238,49.291 L123.238,49.291 Z" id="Shape"></path>
                <path d="M39.964,80.623 C41.429,82.088 43.348,82.82 45.268,82.82 C47.187,82.82 49.107,82.088 50.571,80.623 C53.501,77.695 53.501,72.945 50.572,70.018 L26.325,45.77 C23.396,42.842 18.647,42.84 15.719,45.77 C12.789,48.698 12.789,53.448 15.718,56.375 L39.964,80.623 L39.964,80.623 Z" id="Shape"></path>
                <path d="M201.211,82.82 C203.13,82.82 205.05,82.088 206.515,80.623 L230.761,56.375 C233.69,53.447 233.69,48.697 230.76,45.77 C227.832,42.842 223.083,42.84 220.154,45.77 L195.908,70.018 C192.979,72.946 192.979,77.696 195.909,80.623 C197.372,82.088 199.292,82.82 201.211,82.82 L201.211,82.82 Z" id="Shape"></path>
            </g>
        </g>
    </g>
</svg>